<?xml version="1.0" encoding="UTF-8"?>
<svg id="Layer_2" xmlns="http://www.w3.org/2000/svg" viewBox="0 0 432 432">
  <defs>
    <style>
      .cls-1 {
        fill: #ed2324;
      }

      .cls-2 {
        fill: #317e3d;
      }

      .cls-3 {
        fill: #2b66b1;
      }
    </style>
  </defs>
  <path class="cls-3" d="M384.85,77.7s-12.45,54-54.75,54-81.15-33.55-81.15,1.36c0,19.6.08,124.27.12,189.24,0,14.91-12.07,32-26.98,32h0c0-.19,0-.39,0-.59v-222c0-27,27-54,54-54h108.75Z"/>
  <path class="cls-3" d="M343.68,196.17s-9.74,43.54-42.83,43.54c-11.92,0-31.68-3.83-41.93-7.1,3.69-14.67,20.86-35.96,41.85-35.96s42.91-.47,42.91-.47Z"/>
  <path class="cls-2" d="M46.3,77.7s12.45,54,54.75,54c40.5,0,81.15-33.55,81.15,1.36,0,19.6-.08,124.27-.12,189.24,0,14.91,12.07,32,26.98,32h0c0-.19,0-.39,0-.59v-222c0-27-27-54-54-54s-108.75,0-108.75,0Z"/>
  <path class="cls-2" d="M87.47,196.17s9.74,43.54,42.83,43.54c11.92,0,31.68-3.83,41.93-7.1-3.69-14.67-20.86-35.96-41.85-35.96-21.9,0-42.91-.47-42.91-.47Z"/>
  <polygon class="cls-1" points="-13.53 449.34 -13.53 -27.85 -28.09 -27.85 -28.09 449.34 -28.09 460.83 -13.53 460.83 449.11 460.83 449.11 449.34 -13.53 449.34"/>
</svg>